<?xml version="1.0" encoding="utf-8"?>
<!-- Generator: Adobe Illustrator 15.0.0, SVG Export Plug-In . SVG Version: 6.00 Build 0)  -->
<!DOCTYPE svg PUBLIC "-//W3C//DTD SVG 1.1//EN" "http://www.w3.org/Graphics/SVG/1.1/DTD/svg11.dtd">
<svg version="1.1" xmlns="http://www.w3.org/2000/svg" xmlns:xlink="http://www.w3.org/1999/xlink" x="0px" y="0px" width="266px"
	 height="307.38px" viewBox="0 0 266 307.38" enable-background="new 0 0 266 307.38" xml:space="preserve">
    <polygon class="base" fill="#F2F2F2" stroke="#414042" stroke-width="10" stroke-miterlimit="10" points="133,301.375 5,227.469 5,79.668 
    		133,5.773 261,79.668 261,227.477 		"/>
    <path class="stageThree" fill="#7CC242" d="M58.803,84.521c0,0-6.212,20.868-5.467,46.93l16.734,11.111l-1.593-0.278l0.087,0.052l-0.148-0.061
    	l-14.612-2.541c0.794,9.137,2.538,18.684,5.756,28.029l18.398,4.778l-14.706,4.435c3.109,6.684,7.084,13.156,12.139,19.173
    	l15.133-3.255l-8.096,10.662c5.063,4.715,10.938,9.043,17.772,12.831c8.568,3.196,22.8,6.464,27.717,6.278
    	c0,0,8.738-0.834,11.625-4.924c1.885-2.672-32.143,16.785-31.514-20.25c0.764-45,21.591-52.156,20.621-53.188
    	c-19.367-20.58-45.458-29.775-56.443-38.875C60.344,95.596,58.803,84.521,58.803,84.521 M194.366,58.482
    	c0,0-1.887,13.555-16.405,25.592c-14.523,12.029-50.616,24.195-74.61,53.912c-23.991,29.715-12.332,58.908-6.179,67.629
    	c3.532,5.006,8.885,6.191,12.811,6.285c-1.454-6.832-2.374-14.406-1.981-22.291c1.992-19.949,12.594-35.266,21.136-44.781
    	c4.988-5.559,9.274-9.139,10.732-10.51c2.155-1.92,6.176-5.121,11.054-8.668c5.004-3.484,10.279-7.436,15.113-12.037
    	c9.703-8.814,17.491-17.699,17.469-17.699c0.019,0-6.615,9.77-15.426,19.736c-4.221,5.033-9.575,9.998-14.131,13.807
    	c-4.51,3.949-8.183,7.33-10.25,9.176c-2.019,1.877-8.527,7.535-14.752,16.668c-3.143,4.641-6.007,9.85-8.775,16.199
    	c-2.69,5.486-4.008,11.92-4.07,18.404c-0.1,11.32,2.968,22.385,6.144,30.955c4.263,2.209,10.967,2.93,21.454-0.982
    	c8.365-4.635,15.555-9.934,21.752-15.705l-9.908-13.049l18.521,3.984c6.186-7.365,11.052-15.287,14.856-23.467l-17.999-5.428
    	l22.519-5.848c3.939-11.439,6.073-23.123,7.045-34.305l-17.884,3.109l-0.182,0.074l0.106-0.064l-1.949,0.34l20.481-13.598
    	C201.969,84.023,194.366,58.482,194.366,58.482"/>
    <path class="stageTwo" fill="#7CC242" d="M153.417,86.926c0,0,0.013,10.002-9.271,20.189c-9.288,10.183-34.171,22.658-48.513,46.605
    	c-14.34,23.945-2.934,43.886,2.407,49.571c3.065,3.264,7.06,3.579,9.911,3.247c-1.748-4.797-3.185-10.186-3.701-15.932
    	c-0.932-23.189,14.955-40.163,17.439-43.256c1.363-1.608,3.947-4.334,7.117-7.396c3.268-3.031,6.684-6.428,9.713-10.25
    	c6.126-7.365,10.859-14.588,10.842-14.586c0.014-0.002-3.793,7.744-9.155,15.854c-2.544,4.07-5.913,8.209-8.823,11.43
    	c-2.861,3.316-5.176,6.136-6.484,7.682c-1.27,1.564-5.404,6.32-8.98,13.564c-1.803,3.677-3.346,7.738-4.703,12.615
    	c-1.39,4.244-1.688,9.033-1.074,13.733c1.079,8.203,4.424,15.899,7.594,21.778c3.311,1.164,8.235,1.005,15.428-2.894
    	c5.583-4.206,10.246-8.771,14.145-13.578l-8.498-8.437l13.81,1c3.728-5.959,6.443-12.188,8.364-18.494l-13.578-2.097l15.703-6.524
    	c1.688-8.678,2.043-17.351,1.609-25.543l-12.627,4.07l-0.124,0.071l0.071-0.056l-1.377,0.443l13.439-11.924
    	C161.517,104.637,153.417,86.926,153.417,86.926"/>
    <path class="stageTwo" fill="#7CC242" d="M127.468,105.952c0,0,7.489,10.409,5.311,20.358c-5.311,9.746-15.012,8.422-25.613,26.125
    	c-10.601,17.701-2.168,29.238,1.779,33.441c2.266,2.412,6.771,3.91,8.879,3.665c-1.293-3.546-3.906-8.794-4.289-13.042
    	c-0.688-17.143,12.508-24.43,8.771-21.227c-2.115,2.452-4.654,7.604-5.658,11.209c-1.027,3.139-0.882,8.057-0.428,11.53
    	c0.798,6.063,2.801,6.419,5.144,10.765c2.446,0.861,7.587,2.191,12.903-0.689c4.127-3.109,3.092-2,5.973-5.554l-5.642-3.034
    	l9.568-2.463c2.755-4.405,4.903-6.854,6.323-11.516l-6.834-0.269l8.404-6.104c1.248-6.415,0.855-6.604,0.534-12.661l-6.771,1.728
    	l-0.092,0.053l0.052-0.042l-1.017,0.329l7.372-7.534C150.228,123.889,127.468,105.952,127.468,105.952"/>
</svg>
